# xmcd
#
# Track frame offsets: 
#        151
#        16304
#        33735
#        50714
#        67765
#        83906
#        102071
#        119590
#        137169
#        153252
#        170747
#        188260
#        205753
#        222364
#        240249
#        256028
#
# Disc length: 3695 seconds
#
# Revision: 0
# Processed by: cddbd v1.5.1PL2 Copyright (c) Steve Scherf et al.
# Submitted via: ExactAudioCopy v0.95b4
#
DISCID=d10e6d10
DTITLE=แดง  จิตกร - รวมฮิต 16 เพลงดัง ตลับเพชร
DYEAR=2005
DGENRE=Country
TTITLE0=คิดฮอดบ้านเฮาเนาะ
TTITLE1=มนต์รัก ตจว.
TTITLE2=ขอเป็นอะไหล่รัก
TTITLE3=หัวใจคิดฮอด
TTITLE4=ขอแค่เงาเธอ
TTITLE5=อีสาสิ้นมนต์
TTITLE6=ผู้สาวบ้านได๋
TTITLE7=บอกอ้ายได้บ่
TTITLE8=บอกรักปากป่าว
TTITLE9=หน้าต่างตรงกัน
TTITLE10=ได้ข่าวว่าป่วย
TTITLE11=เต็มใจช้ำ
TTITLE12=เต็มใจรอ
TTITLE13=วันเกิดวันเจ็บ
TTITLE14=ร้องเพลงเพื่อยาย
TTITLE15=น้ำตาผ่าเหล้า
EXTD=
EXTT0=
EXTT1=
EXTT2=
EXTT3=
EXTT4=
EXTT5=
EXTT6=
EXTT7=
EXTT8=
EXTT9=
EXTT10=
EXTT11=
EXTT12=
EXTT13=
EXTT14=
EXTT15=
PLAYORDER=
